<?xml version="1.0" encoding="utf-8"?>
<!-- Generator: Adobe Illustrator 25.0.0, SVG Export Plug-In . SVG Version: 6.00 Build 0)  -->
<svg version="1.1" id="Layer_1" xmlns="http://www.w3.org/2000/svg" xmlns:xlink="http://www.w3.org/1999/xlink" x="0px" y="0px"
	 viewBox="0 0 40 40" style="enable-background:new 0 0 40 40;" xml:space="preserve">
<style type="text/css">
	.st0{fill:#FD7013;}
</style>
<path class="st0" d="M20,0C8.96,0,0,8.95,0,20s8.96,20,20,20c11.05,0,20-8.95,20-20C40,8.96,31.05,0,20,0z M30.84,23.08
	c0,3.84-2.84,7.08-6.54,7.62c-0.09,0.01-0.19,0.02-0.28,0.02H12.36c-0.87-0.06-1.55-0.78-1.55-1.67v-4.18
	c0-0.47,0.39-0.85,0.86-0.84c0.46,0.01,0.81,0.41,0.81,0.87v3.3c0,0.46,0.37,0.84,0.84,0.84h10.02c0.46,0,0.83-0.37,0.83-0.83v-6.68
	c0-0.46-0.37-0.84-0.83-0.84h-3.66c-0.31,0-0.58,0.2-0.67,0.49l-0.76,2.37c0,0,0,0,0,0c-0.13,0.28-0.42,0.48-0.75,0.48
	c-0.33,0-0.62-0.2-0.75-0.48c0,0,0,0,0,0l-0.76-2.37c-0.09-0.29-0.36-0.49-0.67-0.49h-3.66c-0.46,0-0.84-0.37-0.84-0.83v-8.35
	c0-0.46,0.37-0.84,0.84-0.84H23.2c4.22,0,7.64,3.42,7.64,7.64V23.08z"/>
</svg>
